#!OML:ASF F:\VICON\USERDATA\INSTALL\rory3\rory3.ASF
:FULLY-SPECIFIED
:DEGREES
1
root 0.8911845687243904 17.614016871458265 -27.753882634426617 -2.5571176223806087 2.4780653768650334 2.700718277001695
lfemur 18.61418156282646 -5.087220052426052 -27.718688329892224
ltibia 16.86250803381328
lfoot -13.176991499232745 -5.263033951574593
ltoes -9.932000824599672
rfemur -28.629888885446057 5.429936488180653 18.516810238296557
rtibia 22.81950801333916
rfoot -8.440169848615657 -12.094789128129898
rtoes -0.03645427583541716
lowerback 9.200288436037313 -2.062093558945589 -5.6421342431756525
upperback 0.4078111969017488 -3.252293164850859 1.7192093452930741
thorax -4.319574908534889 -1.484662971688088 5.385531282137623
lowerneck -17.00749671777475 -2.2214693181010716 -1.9956304538642826
upperneck 21.172499208310263 -2.488572331756864 -0.2880791515237191
head 9.522919290401077 -1.3565809406145846 -0.09425480155508145
lclavicle -2.797198145427718e-15 -4.1600762727516696e-16
lhumerus -23.18931064989704 -0.967657918057941 81.17871113686184
lradius 30.576689016381586
lwrist 6.029984989530222
lhand -32.67047189046676 25.67799381953758
lfingers 7.1250199999999975
lthumb -5.896071787658397 55.575994208273116
rclavicle -2.797198145427718e-15 -4.1600762727516696e-16
rhumerus -32.95658678842809 -19.223198023869188 -77.3112059888573
rradius 25.223898685413516
rwrist 5.408491996642899
rhand -17.46420074114355 22.576299245405842
rfingers 7.1250199999999975
rthumb 8.787449251740643 -7.220800756771153
2
root 0.8372378453036058 17.72211082185407 -26.6842836101931 -2.943514594631938 1.6376481764651678 -0.11935285664229944
lfemur 16.471383364106277 -5.950746782767121 -24.98919269815658
ltibia 27.024302341576522
lfoot -6.936138526395734 -9.437197820885004
ltoes -13.540886180271
rfemur -26.67489071192019 5.52832618856465 22.24790494350993
rtibia 25.087506732892685
rfoot -4.907633591072132 -8.448736068485715
rtoes -0.10742827556968848
lowerback 9.36502639122853 -1.9316543773892558 -2.536131288274537
upperback 0.15854472885467524 -2.712935078918836 2.5932403860279947
thorax -4.843262605221459 -1.2541849798042004 4.501314979417673
lowerneck -16.69920097845977 -2.5811997562867997 -2.5014740941518254
upperneck 22.153788130664314 -2.8172866434241763 -0.4809359823547552
head 9.821671376333606 -1.5782308983073572 -0.12524725053911004
lclavicle -2.7971981608187525e-15 -4.1600760208561247e-16
lhumerus -24.63350832866401 0.24130689504030822 82.17810538471166
lradius 30.61168863279218
lwrist 6.331713971961882
lhand -32.90677083372516 25.440294615998724
lfingers 7.1250199999999975
lthumb -6.124190642514589 55.331794846599685
rclavicle -2.7971981608187525e-15 -4.1600760208561247e-16
rhumerus -34.04778391302183 -22.199293133965536 -74.66591486558445
rradius 22.907505713228467
rwrist 8.292504944146275
rhand -17.063204140202448 23.6431947350573
rfingers 7.1250199999999975
rthumb 9.174345852689584 -6.137245322037881
3
root 0.775861315061749 17.842804074947626 -25.64118474837381 -3.0380537980482996 1.2381195016965085 -0.4392491238002525
lfemur 11.369187437393755 -3.9933741814376695 -23.320694782158938
ltibia 38.42599613929782
lfoot 7.378784967684754 -14.847280631214955
ltoes -12.840486964178698
rfemur -24.955391584027275 3.3953238048142413 23.5458031874009
rtibia 28.762204190570355
rfoot -5.236433340787547 -5.276731965124378
rtoes 2.5401116035616487
lowerback 9.404585868992083 -1.851764906242686 -2.127332308566241
upperback -0.008750206585073694 -2.546955660419392 2.8722875043447047
thorax -5.061797462743885 -1.1709556003275243 4.550834818304444
lowerneck -17.06979586359763 -2.48277236596494 -2.7820305702576187
upperneck 22.238487161911646 -2.5964604257988713 -0.4477603418802254
head 9.924748647720678 -1.4957846346022823 -0.04316270208928885
lclavicle -2.7971982179084052e-15 -4.16007586342117e-16
lhumerus -27.191804360897574 1.7964879368572981 82.83360165878685
lradius 30.836287913701113
lwrist 6.459953540340345
lhand -32.40237320013151 17.618217216339215
lfingers 7.1250199999999975
lthumb -5.637243441406724 47.52321734823824
rclavicle -2.7971982179084052e-15 -4.16007586342117e-16
rhumerus -34.50588275583163 -24.393089182433556 -72.6009219496323
rradius 21.413510423768983
rwrist 10.64878895752826
rhand -16.957205047633686 22.448999782177395
rfingers 7.1250199999999975
rthumb 9.276634980727843 -7.32691030802164
4
root 0.7042770328619035 17.973696758480806 -24.67018542753741 -3.181032708559203 1.2045493248967918 -3.0485476520191033
lfemur 3.977831675861413 -2.467399974330337 -19.00080118036209
ltibia 51.3422893397526
lfoot 17.88317258639845 -18.139575637728882
ltoes 9.968300844808923
rfemur -21.15179385358549 2.909555584440481 27.22279768425512
rtibia 28.455204720034033
rfoot -5.694722860659267 -4.13318407617229
rtoes 8.03438307585106
lowerback 9.595843451499809 -1.6310262048120467 0.7651250964319991
upperback -0.020175489163218985 -1.903028193724416 3.3395427050733772
thorax -5.319041407305466 -0.9153917508354527 3.3294200047191156
lowerneck -16.631901908862808 -2.756955076633382 -2.3652258080924566
upperneck 21.61189424692423 -3.1376210885155773 -0.32638475060681893
head 9.62020671212191 -1.6947556227992917 -0.13050510368587212
lclavicle -2.7971981742675558e-15 -4.160075957882661e-16
lhumerus -28.41370249099566 -0.6277544686480259 84.02259487766902
lradius 30.9357880076368
lwrist 8.292667670420554
lhand -30.483582883798338 19.695710960277292
lfingers 7.1250199999999975
lthumb -3.7844230185354704 49.641911345766765
rclavicle -2.7971981742675558e-15 -4.160075957882661e-16
rhumerus -34.69788206052001 -23.56219065933416 -73.00702046217998
rradius 21.802409054016866
rwrist 8.827503514528734
rhand -17.368201562468993 22.519299486274644
rfingers 7.1250199999999975
rthumb 8.880078436293493 -7.273870539672232
5
root 0.6461424137518205 18.089390293697715 -23.7713848992285 -3.4050409643652353 0.42873784592850717 -4.3961942518113934
lfemur -3.1060235737251505 0.1060952235571957 -16.463404889355594
ltibia 62.047283689015444
lfoot 12.802778530174255 -14.529180809221575
ltoes 4.083099154623792
rfemur -17.15069696091517 3.930871908276888 29.37649454640101
rtibia 27.54720483910829
rfoot -7.204351162558036 -4.7164430199450225
rtoes 9.183271453137012
lowerback 10.020298068680138 -1.063889487046636 2.3407074722323147
upperback 0.30123598957560116 -0.9577289366351929 3.4441316733142875
thorax -5.2923120523023695 -0.48804037213811646 2.4225436605776616
lowerneck -16.884498412945455 -2.976319244328361 -2.2484272810380896
upperneck 21.572694693960898 -3.5829433525178374 0.1486521686704787
head 9.664405546414262 -1.834759283832354 -0.047449476076722286
lclavicle -2.7971981117689016e-15 -4.160076388204367e-16
lhumerus -28.289702604219244 -2.1372945249884614 84.91458986011382
lradius 29.269491543157525
lwrist 5.6639561813260535
lhand -28.69599202439981 21.915004728896804
lfingers 7.1250199999999975
lthumb -2.05808200020965 51.884904785978875
rclavicle -2.7971981117689016e-15 -4.160076388204367e-16
rhumerus -32.833387176409005 -23.66909064779157 -73.73271802322945
rradius 21.151611089685
rwrist 9.47284206171456
rhand -16.07671252741298 26.690881788732494
rfingers 7.1250199999999975
rthumb 10.126187576979916 -3.045428489095036
